<?xml version="1.0" standalone="no"?><!DOCTYPE svg PUBLIC "-//W3C//DTD SVG 1.1//EN" "http://www.w3.org/Graphics/SVG/1.1/DTD/svg11.dtd"><svg t="1592298527612" class="icon" viewBox="0 0 1024 1024" version="1.1" xmlns="http://www.w3.org/2000/svg" p-id="4395" xmlns:xlink="http://www.w3.org/1999/xlink" width="200" height="200"><defs><style type="text/css"></style></defs><path d="M427.6 82.7c8.7 26.7 15.3 54.1 19.8 81.8 0.7 4.2 1.3 8.4 1.9 12.6 0.5 3.5-1-7.5-0.4-2.7 0.1 1 0.3 2 0.4 3 0.3 2.2 0.5 4.5 0.8 6.7 1 9.1 1.8 18.1 2.3 27.2 1.2 19.3 1.3 38.7 0.3 58-0.5 10.3-1.4 20.6-2.6 30.8l-0.9 7.8c-0.5 3.7 1-7.1 0.2-1.8-0.2 1.5-0.4 3.1-0.7 4.6-0.8 5.3-1.7 10.6-2.6 15.8-4.1 22.4-9.8 44.6-17 66.2-3.9 11.7-8.2 23.2-12.9 34.6-1.5 3.5 2.6-6 0.3-0.8-0.6 1.3-1.1 2.7-1.7 4-1.3 3-2.7 6-4.1 9-2.7 5.9-5.6 11.8-8.5 17.5-12.4 24.3-26.7 47.6-42.6 69.7-2.1 2.9-4.2 5.8-6.3 8.6-1 1.4-2 2.7-3 4-0.5 0.7-1 1.3-1.5 2-2.9 3.8 3.6-4.6 0.6-0.8-4.6 5.8-9.2 11.5-13.9 17.2-10.2 12.1-20.8 23.9-31.9 35.2-23.9 24.5-49.6 47.3-76.6 68.3-0.8 0.7-1.7 1.3-2.5 1.9 4.6-3.6 2.1-1.6 1.1-0.8l-5.1 3.9c-3.9 2.9-7.8 5.8-11.8 8.7-7.9 5.7-15.8 11.3-23.9 16.8-16.7 11.4-33.7 22.2-51 32.5-8.8 5.2-17.6 10.7-24.6 18.3-7.6 8.3-12.9 17.3-17 27.7-6.8 17.2-6.8 37-2.2 54.7 6.8 26.4 25 50 44.1 68.8 20 19.7 43.5 36.1 68 49.8 60.2 33.5 127.7 52 195.8 59.7 75.7 8.5 154.1 1.5 226.6-22 31.1-10.1 60.8-21.8 86.8-41.7 22.4-17.1 42.5-36.7 60.9-58.1 21.7-25.2 41.3-52.3 58.9-80.4 18.6-29.8 35.1-60.9 49.2-93.1 15.4-35.1 28.5-71.2 38.1-108.4 9.7-37.5 15.9-76.2 17.9-114.9 2-38.5-0.9-77.3-8.8-115.1-8-38-21.9-75.1-41.1-108.9-20.8-36.7-48.1-69.9-79.5-98-36.9-33-79-59.9-123.7-81.2C628.3 55.4 570 36.5 510.5 23c-9.6-2.2-19.4-4.8-29.3-5.7-10.3-0.9-21 1.7-30 6.7-20.6 11.4-30.3 36.4-23.6 58.7 3.6 12 17 20.8 29.5 16.8 12.1-3.9 20.6-16.7 16.8-29.5-0.3-0.9-0.5-1.8-0.8-2.7-1.2-3.7 0.5 1.8 0.3 2.3 0.1-0.2 0-2.2-0.1-2.6-0.3-4.5-1.3 4.7-0.3 2 0.3-0.7 0.5-1.6 0.6-2.4 0.4-2.8-2.6 4.7-1.1 2.3 0.4-0.7 0.8-1.4 1.2-2.2 1.9-3.6 0 0.8-1.2 1.4 0.9-0.5 2.9-2.6 3.5-3.4-3.3 4-3.7 2.5-1.8 1.6 0.9-0.4 4.5-1.8 0.5-0.5-4.4 1.5 1.9-0.3 2.6-0.6 2.8-1.1-5.5 0.3-2.4 0.3 1.1 0 2.3 0 3.4-0.1 3.7-0.3-1.5-0.2-2.2-0.5 0.9 0.3 2 0.4 2.9 0.6 2.2 0.4 4.3 0.9 6.5 1.4 4 0.9 8.1 1.8 12.1 2.7 7.9 1.8 15.8 3.7 23.6 5.7 29.2 7.4 58 16 86.2 26.4 6.6 2.4 13.1 4.9 19.6 7.5 3.2 1.3 6.3 2.6 9.5 3.9 2.7 1.1-5.1-2.2-2.4-1 0.7 0.3 1.5 0.6 2.2 0.9 1.6 0.7 3.3 1.4 4.9 2.1 11.9 5.2 23.7 10.8 35.2 16.7 21.3 11 42 23.3 61.6 37.2 4.6 3.2 9.1 6.6 13.6 10 4.3 3.3-3.9-3-1-0.8 1.1 0.9 2.3 1.8 3.4 2.7 2.1 1.7 4.3 3.4 6.4 5.2 8.2 6.8 16.2 13.9 23.9 21.3 7.4 7.1 14.5 14.5 21.3 22.2 3.3 3.7 6.5 7.6 9.7 11.4 1.6 1.9 3.1 3.9 4.6 5.8 2.9 3.7-3.9-5.1-1.1-1.4 0.8 1 1.6 2.1 2.3 3.1 11.4 15.3 21.5 31.5 30.3 48.4 2.1 4.1 4.2 8.3 6.2 12.5 1 2.1 1.9 4.2 2.9 6.3 0.4 1 0.9 2 1.3 3 2.2 5.2-1.9-4.7-0.7-1.6 3.5 8.5 6.7 17 9.6 25.7 5.7 17.2 10 34.7 13.1 52.5 0.8 4.4 1.5 8.9 2.1 13.3 0.7 4.9-0.8-6-0.3-2.4 0.1 1.2 0.3 2.4 0.4 3.5 0.3 2.2 0.5 4.5 0.8 6.7 0.9 9 1.6 17.9 1.9 26.9 0.7 18 0.3 36.1-1 54.1-0.7 9-1.6 18-2.8 27-0.6 5 0.8-6 0.3-2.4-0.2 1.2-0.3 2.4-0.5 3.6-0.3 2.2-0.7 4.5-1 6.7-0.7 4.5-1.5 9-2.3 13.4-6.5 35.6-16.4 70.6-28.9 104.6-3.1 8.4-6.4 16.7-9.8 25-0.4 1-0.8 1.9-1.2 2.9-1.9 4.6 2.5-5.8 0.7-1.8-0.9 2-1.7 4.1-2.6 6.1-1.8 4.1-3.6 8.1-5.4 12.1-7.2 15.8-15.1 31.4-23.4 46.6-15.7 28.6-33.2 56.2-52.8 82.3-1.1 1.5-2.3 3-3.5 4.6-2.9 3.8 2.6-3.4 1.7-2.2l-1.8 2.4c-2.3 2.9-4.6 5.8-7 8.7-4.6 5.6-9.2 11.1-14 16.5-8.9 10-18.2 19.7-28 28.9-4.5 4.2-9.1 8.3-13.8 12.2-2.2 1.9-4.5 3.7-6.8 5.5-0.5 0.4-1.1 0.8-1.6 1.2-1.7 1.3 6.2-4.7 2.7-2.1-1.1 0.8-2.2 1.7-3.3 2.5-8.2 6-16.7 11.5-25.8 16.1-2 1-4.1 2-6.1 2.9-4.7 2.1 6.9-2.8 2.4-1-1.4 0.6-2.8 1.1-4.2 1.7-17.9 7.4-36.2 13.8-54.9 19.1-18.2 5.1-36.8 9.3-55.5 12.3-2.2 0.4-4.3 0.7-6.5 1-1.1 0.2-2.2 0.3-3.3 0.5-0.5 0.1-5.9 0.8-1.7 0.2 3.7-0.5 0 0-0.9 0.1-1.1 0.1-2.2 0.3-3.3 0.4-2.4 0.3-4.9 0.6-7.3 0.8-9.2 1-18.3 1.7-27.5 2.2-18.1 1-36.2 1-54.3 0.2-8.9-0.4-17.7-1-26.5-1.9-4.4-0.4-8.7-0.9-13.1-1.4-2-0.2-4.1-0.5-6.1-0.8-3.2-0.4 5 0.7 1.8 0.2-1.3-0.2-2.5-0.4-3.8-0.5-32.9-4.8-65.4-12.6-96.8-23.6-7.4-2.6-14.7-5.3-22-8.3-1.7-0.7-3.3-1.4-5-2.1 7.2 2.8 0.6 0.2-1.1-0.5-3.4-1.5-6.9-3.1-10.3-4.7-13-6.1-25.7-12.9-38-20.4-5.8-3.5-11.4-7.2-17-11.1-2.7-1.9-5.3-3.8-7.9-5.8-0.6-0.5-1.2-0.9-1.8-1.4-2.3-1.7 4.4 3.5 2.2 1.7-1.3-1.1-2.6-2.1-3.9-3.1-9.3-7.6-18.1-15.8-26-24.7-1.9-2.1-3.7-4.2-5.4-6.4-0.6-0.8-3.8-4.9-0.8-1 3 3.8-0.3-0.5-1-1.4-3.1-4.2-5.9-8.6-8.5-13.2-1.4-2.4-2.7-4.9-3.9-7.4-2.5-5.3 1.7 4.6-0.3-0.9-0.7-2-1.4-4-1.9-6-0.5-1.8-0.9-3.6-1.3-5.4-0.1-0.7-0.2-2-0.5-2.7 1.9 4.8 0.5 4.3 0.3 1.6-0.4-3.8-0.4-7.6-0.1-11.4 0.1-0.8 0.3-1.8 0.2-2.6 0.2 5.4-0.7 4.5-0.3 2.5 0.4-1.9 0.8-3.8 1.3-5.8 0.5-1.7 1-3.3 1.6-5 0.3-0.9 1.4-3.8 0-0.1-1.4 3.9 0 0.2 0.4-0.7 0.8-1.5 1.7-3.1 2.6-4.5 0.5-0.7 1-1.4 1.5-2.2 2.5-3.9-3.1 3.4-0.9 1.2 2.6-2.6 6-5.2 8.2-8-2.8 3.4-3.3 2.4-1.5 1.3 0.8-0.5 1.6-1.1 2.4-1.6 2.2-1.4 4.5-2.7 6.7-4 4.4-2.6 8.7-5.3 13.1-7.9 8.5-5.2 16.9-10.6 25.2-16 59-38.7 114.6-83.7 161.6-136.5 37.8-42.4 70.6-89.6 94.6-141.1 20.3-43.5 35-89.3 42.6-136.7 6.5-40.8 8.7-82 5.7-123.2-2.4-33.7-7.7-67.4-16.1-100.2-3-11.7-6.3-23.3-10.1-34.8-3.9-11.9-16.8-20.9-29.5-16.8-11.8 4.2-20.8 17.1-16.7 29.8z"  p-id="4396"></path><path d="M559 423m-30 0a30 30 0 1 0 60 0 30 30 0 1 0-60 0Z"  p-id="4397"></path><path d="M733 483m-30 0a30 30 0 1 0 60 0 30 30 0 1 0-60 0Z"  p-id="4398"></path><path d="M517.4 554.2c9.2 34.2 36.7 65.2 73.1 68.7 18.2 1.8 36.2-3.9 52.5-11.6 5.9-2.8 7.4-11.2 4.3-16.4-3.5-6-10.5-7.1-16.4-4.3-6.2 2.9-13.3 5.5-20.6 7.1-1.7 0.4-3.4 0.7-5.2 1-0.4 0.1-2.4 0.3-0.2 0-0.7 0.1-1.5 0.2-2.2 0.2-3.1 0.3-6.2 0.3-9.3 0.2l-3.9-0.3c3 0.3-0.7-0.1-1.5-0.3-2.7-0.5-5.3-1.2-7.9-2.1-1-0.3-3.7-1.5-1.2-0.4-1.2-0.5-2.3-1.1-3.5-1.6-2.2-1.1-4.4-2.4-6.5-3.8-0.3-0.2-3.2-2.3-1.8-1.2 1.4 1.1-1.5-1.2-1.9-1.6-1.8-1.6-3.5-3.2-5.2-4.9-1.4-1.5-2.7-3.1-4.1-4.6-2.1-2.5 0.7 1.1-0.4-0.5l-2.1-3c-2.3-3.3-4.3-6.7-6.2-10.2-0.8-1.5-1.6-3.1-2.3-4.6-0.3-0.7-0.6-1.4-0.9-2-0.1-0.3-0.3-0.7-0.4-1-1-2.1 0.1 1 0.4 1-1-0.1-3.1-8.5-3.5-9.9-3.9-15.2-27.1-8.9-23.1 6.1z"  p-id="4399"></path></svg>