<?xml version="1.0" standalone="no"?><!DOCTYPE svg PUBLIC "-//W3C//DTD SVG 1.1//EN" "http://www.w3.org/Graphics/SVG/1.1/DTD/svg11.dtd"><svg t="1596607976224" class="icon" viewBox="0 0 1025 1024" version="1.1" xmlns="http://www.w3.org/2000/svg" p-id="12489" xmlns:xlink="http://www.w3.org/1999/xlink" width="200.1953125" height="200"><defs><style type="text/css"></style></defs><path d="M768 675.2V288a64.19 64.19 0 0 0-64-64H576a128 128 0 0 0-256 0H192a64.19 64.19 0 0 0-64 64v512a64.19 64.19 0 0 0 64 64h451.2A160.19 160.19 0 0 1 768 675.2zM416 544v221.33c-90.8-15.24-160-94.2-160-189.33s69.2-174.09 160-189.33z m-32-320a64 64 0 1 1 64 64 64 64 0 0 1-64-64z m96 541.33V608h157.33A192.14 192.14 0 0 1 480 765.33zM480 544V386.67A192.14 192.14 0 0 1 637.33 544z" p-id="12490" fill="#e6e6e6"></path><path d="M920.65 812.24l-27.88-5.58a9.18 9.18 0 0 1-6.82-5.89q-1.39-3.81-3.09-7.46a9.19 9.19 0 0 1 0.65-9l15.77-23.66a9.14 9.14 0 0 0-1.14-11.54l-15.26-15.26a9.14 9.14 0 0 0-11.54-1.14l-23.66 15.77a9.19 9.19 0 0 1-9 0.65q-3.65-1.71-7.46-3.09a9.18 9.18 0 0 1-5.89-6.82l-5.58-27.88a9.14 9.14 0 0 0-9-7.35h-21.54a9.14 9.14 0 0 0-9 7.35l-5.58 27.88a9.18 9.18 0 0 1-5.89 6.82q-3.81 1.39-7.46 3.09a9.19 9.19 0 0 1-9-0.65l-23.66-15.77a9.14 9.14 0 0 0-11.54 1.14l-15.26 15.26a9.14 9.14 0 0 0-1.14 11.54l15.77 23.66a9.19 9.19 0 0 1 0.65 9q-1.71 3.65-3.09 7.46a9.18 9.18 0 0 1-6.82 5.89l-27.88 5.58a9.14 9.14 0 0 0-7.35 9v21.58a9.14 9.14 0 0 0 7.35 9l27.88 5.58a9.18 9.18 0 0 1 6.82 5.89q1.39 3.81 3.09 7.46a9.19 9.19 0 0 1-0.65 9l-15.77 23.66a9.14 9.14 0 0 0 1.14 11.54l15.26 15.26a9.14 9.14 0 0 0 11.54 1.14l23.66-15.77a9.19 9.19 0 0 1 9-0.65q3.65 1.71 7.46 3.09a9.18 9.18 0 0 1 5.89 6.82l5.58 27.88a9.14 9.14 0 0 0 9 7.35h21.58a9.14 9.14 0 0 0 9-7.35l5.58-27.88a9.18 9.18 0 0 1 5.89-6.82q3.81-1.39 7.46-3.09a9.19 9.19 0 0 1 9 0.65l23.66 15.77a9.14 9.14 0 0 0 11.54-1.14l15.26-15.26a9.14 9.14 0 0 0 1.14-11.54l-15.77-23.66a9.19 9.19 0 0 1-0.65-9q1.71-3.65 3.09-7.46a9.18 9.18 0 0 1 6.82-5.89l27.88-5.58a9.14 9.14 0 0 0 7.35-9v-21.61a9.14 9.14 0 0 0-7.39-8.97z m-81.86 58.55A54.86 54.86 0 1 1 854.86 832a54.5 54.5 0 0 1-16.07 38.79z" p-id="12491" fill="#e6e6e6"></path></svg>