<?xml version="1.0" standalone="no"?><!DOCTYPE svg PUBLIC "-//W3C//DTD SVG 1.1//EN" "http://www.w3.org/Graphics/SVG/1.1/DTD/svg11.dtd"><svg t="1596608078163" class="icon" viewBox="0 0 1024 1024" version="1.1" xmlns="http://www.w3.org/2000/svg" p-id="13119" xmlns:xlink="http://www.w3.org/1999/xlink" width="200" height="200"><defs><style type="text/css"></style></defs><path d="M924.8 337.6c-22.6-53.4-54.9-101.3-96-142.4-41.1-41.1-89-73.4-142.4-96C631.1 75.8 572.5 64 512 64S392.9 75.8 337.6 99.2c-53.4 22.6-101.3 54.9-142.4 96-41.1 41.1-73.4 89-96 142.4C75.8 392.9 64 451.5 64 512s11.8 119.1 35.2 174.4c22.6 53.4 54.9 101.3 96 142.4 41.1 41.1 89 73.4 142.4 96C392.9 948.2 451.5 960 512 960s119.1-11.8 174.4-35.2c53.4-22.6 101.3-54.9 142.4-96 41.1-41.1 73.4-89 96-142.4C948.2 631.1 960 572.5 960 512s-11.8-119.1-35.2-174.4zM758.63 534.63c-5.79 5.79-13.79 9.37-22.63 9.37H288c-17.67 0-32-14.33-32-32 0-8.84 3.58-16.84 9.37-22.63S279.16 480 288 480h448c17.67 0 32 14.33 32 32 0 8.84-3.58 16.84-9.37 22.63z" p-id="13120" fill="#333333"></path></svg>